<?xml version="1.0" encoding="UTF-8" standalone="no"?><!DOCTYPE svg PUBLIC "-//W3C//DTD SVG 1.1//EN" "http://www.w3.org/Graphics/SVG/1.1/DTD/svg11.dtd"><svg width="100%" height="100%" viewBox="0 0 1924 1973" version="1.1" xmlns="http://www.w3.org/2000/svg" xmlns:xlink="http://www.w3.org/1999/xlink" xml:space="preserve" xmlns:serif="http://www.serif.com/" style="fill-rule:evenodd;clip-rule:evenodd;stroke-linejoin:round;stroke-miterlimit:2;"><g><g><path d="M1228.92,1070.2c-0.69,-2.976 1.103,-5.964 4.054,-6.755c52.89,-14.172 484.364,-129.785 484.364,-129.785c35.029,-9.386 71.088,11.433 80.474,46.461l123.831,462.147c9.386,35.029 -11.432,71.088 -46.461,80.474l-1668.62,447.106c-35.029,9.386 -71.088,-11.432 -80.474,-46.461l-123.831,-462.147c-9.386,-35.028 11.432,-71.088 46.461,-80.473c0,-0 672.595,-180.222 787.052,-210.89c10.808,-2.896 22.163,-3.089 33.063,-0.56c60.256,13.979 263.909,61.225 263.909,61.225c30.335,7.037 62.156,-2.069 84.176,-24.089c22.02,-22.02 31.126,-53.84 24.088,-84.176c0,-0 -8.776,-37.833 -12.081,-52.077Z"/><g><path d="M1522.54,1322.26c2.859,10.671 13.844,17.013 24.516,14.154l219.969,-58.941c10.671,-2.859 17.013,-13.844 14.154,-24.516l-10.362,-38.67c-2.859,-10.671 -13.844,-17.013 -24.516,-14.154l-219.968,58.94c-10.672,2.86 -17.014,13.845 -14.155,24.516l10.362,38.671Z" style="fill:#fff;"/><path d="M153.076,1689.21c2.859,10.671 13.844,17.014 24.516,14.154l219.968,-58.94c10.672,-2.86 17.014,-13.845 14.155,-24.516l-10.362,-38.67c-2.859,-10.672 -13.844,-17.014 -24.516,-14.155l-219.969,58.941c-10.671,2.859 -17.013,13.844 -14.154,24.516l10.362,38.67Z" style="fill:#fff;"/><path d="M495.442,1597.47c2.86,10.671 13.845,17.014 24.516,14.154l219.969,-58.94c10.671,-2.859 17.014,-13.845 14.154,-24.516l-10.361,-38.67c-2.86,-10.672 -13.845,-17.014 -24.516,-14.154l-219.969,58.94c-10.672,2.859 -17.014,13.845 -14.154,24.516l10.361,38.67Z" style="fill:#fff;"/><path d="M837.809,1505.74c2.859,10.672 13.844,17.014 24.516,14.155l219.969,-58.941c10.671,-2.859 17.013,-13.845 14.154,-24.516l-10.362,-38.67c-2.859,-10.671 -13.844,-17.014 -24.516,-14.154l-219.969,58.94c-10.671,2.86 -17.013,13.845 -14.154,24.516l10.362,38.67Z" style="fill:#fff;"/><path d="M1180.17,1414c2.86,10.672 13.845,17.014 24.516,14.155l219.969,-58.941c10.671,-2.859 17.014,-13.844 14.154,-24.516l-10.361,-38.67c-2.86,-10.671 -13.845,-17.014 -24.516,-14.154l-219.969,58.94c-10.671,2.86 -17.014,13.845 -14.154,24.516l10.361,38.67Z" style="fill:#fff;"/></g></g><g><path d="M258.638,594.157c-15.704,-15.704 -15.704,-41.165 -0,-56.868c64.926,-64.926 223.468,-223.469 288.395,-288.395c15.703,-15.704 41.164,-15.704 56.867,0c113.117,113.116 525.08,525.079 525.08,525.079c-0,0 50.31,216.862 81.045,349.346c5.002,21.564 -1.471,44.184 -17.124,59.838c-15.654,15.653 -38.274,22.127 -59.839,17.124c-132.483,-30.735 -349.345,-81.045 -349.345,-81.045c0,-0 -411.963,-411.963 -525.079,-525.079Z"/><path d="M156.441,491.959c7.541,7.542 17.769,11.778 28.433,11.778c10.665,0 20.893,-4.236 28.434,-11.778c64.927,-64.926 223.469,-223.468 288.395,-288.394c7.541,-7.542 11.778,-17.77 11.778,-28.434c-0,-10.665 -4.237,-20.893 -11.778,-28.434c-32.586,-32.586 -85.677,-85.677 -118.263,-118.263c-7.541,-7.541 -17.769,-11.778 -28.434,-11.778c-10.664,0 -20.892,4.237 -28.433,11.778c-64.927,64.926 -223.469,223.468 -288.395,288.395c-7.541,7.541 -11.778,17.769 -11.778,28.434c0,10.664 4.237,20.892 11.778,28.434c32.586,32.585 85.677,85.677 118.263,118.262Z"/></g></g></svg>